<?xml version="1.0" standalone="no"?><svg xmlns="http://www.w3.org/2000/svg" viewBox="0 0 1440 320"><path fill="#ffffff" fill-opacity="1" d="M0,96L26.7,122.7C53.3,149,107,203,160,208C213.3,213,267,171,320,138.7C373.3,107,427,85,480,90.7C533.3,96,587,128,640,170.7C693.3,213,747,267,800,245.3C853.3,224,907,128,960,96C1013.3,64,1067,96,1120,138.7C1173.3,181,1227,235,1280,218.7C1333.3,203,1387,117,1413,74.7L1440,32L1440,320L1413.3,320C1386.7,320,1333,320,1280,320C1226.7,320,1173,320,1120,320C1066.7,320,1013,320,960,320C906.7,320,853,320,800,320C746.7,320,693,320,640,320C586.7,320,533,320,480,320C426.7,320,373,320,320,320C266.7,320,213,320,160,320C106.7,320,53,320,27,320L0,320Z"></path></svg>