<?xml version="1.0" standalone="no"?><svg xmlns="http://www.w3.org/2000/svg" viewBox="0 0 1440 320"><path fill="#ffffff" fill-opacity="1" d="M0,64L30,96C60,128,120,192,180,186.7C240,181,300,107,360,90.7C420,75,480,117,540,160C600,203,660,245,720,256C780,267,840,245,900,213.3C960,181,1020,139,1080,117.3C1140,96,1200,96,1260,106.7C1320,117,1380,139,1410,149.3L1440,160L1440,0L1410,0C1380,0,1320,0,1260,0C1200,0,1140,0,1080,0C1020,0,960,0,900,0C840,0,780,0,720,0C660,0,600,0,540,0C480,0,420,0,360,0C300,0,240,0,180,0C120,0,60,0,30,0L0,0Z"></path></svg>